#!OML:ASF I:\Actors\actors\Patient Classification 2\Patient 1\Session 1\actor1.ASF
:FULLY-SPECIFIED
:DEGREES
537
root -0.675175 18.793 4.85945 5.32112 2.20279 -0.154527
lowerback 20.4951 1.20958 -0.0172882
upperback 4.64646 1.74987 2.24105
thorax -6.48069 0.860343 1.9756
lowerneck 4.95503 -2.37145 -2.59733
upperneck 44.8426 -2.88936 -0.498449
head 15.0659 -1.60573 0.0100984
rclavicle -5.1684e-015 -7.95139e-015
rhumerus -20.0889 -24.6113 -14.2217
rradius 154.671
rwrist -85.7868
rhand 63.9637 -46.2156
rfingers 7.12502
rthumb 74.9707 0.754268
lclavicle -5.1684e-015 -7.95139e-015
lhumerus -24.031 23.1809 17.5493
lradius 154.723
lwrist 99.268
lhand 34.948 -17.8466
lfingers 7.12502
lthumb 58.0919 -2.20797
rfemur 0 0 0
rtibia 0
rfoot 0 0
rtoes 0
lfemur -12.6863 -2.1477 -13.2221
ltibia 22.6107
lfoot -18.7857 12.2345
ltoes -55.4096
538
root -0.667787 18.7921 4.89537 5.28408 2.21167 -0.15023
lowerback 20.3009 1.23717 -0.0435849
upperback 4.21368 1.79053 2.27078
thorax -6.85075 0.884063 2.01248
lowerneck 4.95557 -2.46252 -2.24552
upperneck 44.7106 -2.88534 -0.966307
head 14.9737 -1.59797 -0.251569
rclavicle -2.70347e-014 -2.62396e-014
rhumerus -21.6868 -23.0322 -13.8984
rradius 154.828
rwrist -85.6731
rhand 63.586 -46.622
rfingers 7.12502
rthumb 74.979 -1.05921
lclavicle -2.70347e-014 -2.62396e-014
lhumerus -25.5356 22.5331 17.2444
lradius 154.997
lwrist 99.7745
lhand 35.3265 -17.7344
lfingers 7.12502
lthumb 58.4213 -2.39713
rfemur 0 0 0
rtibia 0
rfoot 0 0
rtoes 0
lfemur -12.4955 -2.18968 -13.2667
ltibia 22.5707
lfoot -18.883 12.2632
ltoes -55.5762
539
root -0.659906 18.7899 4.93189 5.17436 2.2204 -0.157512
lowerback 20.1794 1.31866 0.0570335
upperback 3.75401 1.91999 2.18245
thorax -7.28412 0.946905 1.82515
lowerneck 4.95766 -2.59444 -1.78996
upperneck 44.7472 -3.0343 -1.18953
head 14.9757 -1.61215 -0.443902
rclavicle -1.15295e-014 3.18055e-015
rhumerus -23.8783 -21.3628 -13.4191
rradius 155.105
rwrist -85.8567
rhand 63.3134 -46.4938
rfingers 7.12502
rthumb 74.9793 -1.94666
lclavicle -1.15295e-014 3.18055e-015
lhumerus -26.7927 21.7862 16.7701
lradius 155.176
lwrist 100.844
lhand 35.9862 -17.2896
lfingers 7.12502
lthumb 58.993 -2.49384
rfemur 0 0 0
rtibia 0
rfoot 0 0
rtoes 0
lfemur -12.2247 -2.15631 -13.3055
ltibia 22.539
lfoot -18.9198 12.2569
ltoes -55.7385
540
root -0.651834 18.7886 4.96941 5.0365 2.25552 -0.166697
lowerback 20.3247 1.33365 0.258342
upperback 3.19887 1.99079 2.10753
thorax -7.9601 0.977459 1.6052
lowerneck 4.96694 -2.59569 -2.02981
upperneck 44.7613 -3.16103 -0.797181
head 14.9989 -1.66329 -0.245475
rclavicle -1.33186e-014 5.56597e-015
rhumerus -25.8287 -19.3637 -12.9325
rradius 155.133
rwrist -86.4997
rhand 63.1919 -46.2852
rfingers 7.12502
rthumb 74.9778 -2.19101
lclavicle -1.33186e-014 5.56597e-015
lhumerus -27.9467 20.5425 16.7427
lradius 155.145
lwrist 101.222
lhand 36.5246 -16.9204
lfingers 7.12502
lthumb 59.4572 -2.58259
rfemur 0 0 0
rtibia 0
rfoot 0 0
rtoes 0
lfemur -11.9239 -2.22871 -13.3168
ltibia 22.5121
lfoot -19.0942 12.1905
ltoes -55.5992
541
root -0.644264 18.7866 5.00719 4.907 2.32849 -0.206553
lowerback 20.1779 1.33867 0.254156
upperback 2.94168 2.00971 2.20185
thorax -8.16686 0.989397 1.70578
lowerneck 4.2327 -2.61851 -2.60468
upperneck 44.7037 -3.33463 -0.269306
head 15.1544 -1.77255 0.0548149
rclavicle -1.72943e-014 -2.22639e-014
rhumerus -27.4128 -17.2022 -12.9598
rradius 155.197
rwrist -86.9552
rhand 62.3892 -46.1949
rfingers 7.12502
rthumb 74.9442 -5.08588
lclavicle -1.72943e-014 -2.22639e-014
lhumerus -28.7057 19.0651 17.8752
lradius 154.746
lwrist 100.099
lhand 37.0475 -16.8281
lfingers 7.12502
lthumb 59.9059 -2.9494
rfemur 0 0 0
rtibia 0
rfoot 0 0
rtoes 0
lfemur -11.6486 -2.30164 -13.3066
ltibia 22.4809
lfoot -19.1844 12.2245
ltoes -55.7942
542
root -0.637323 18.7839 5.0457 4.76922 2.45025 -0.271996
lowerback 20.0953 1.46988 0.545717
upperback 2.55078 2.23846 2.03881
thorax -8.53958 1.08783 1.29956
lowerneck 3.89531 -2.86423 -2.22588
upperneck 44.7283 -3.79641 -0.0723088
head 15.2408 -1.88405 0.0180686
rclavicle -1.41137e-014 1.27222e-014
rhumerus -30.0252 -14.5582 -13.2965
rradius 155.386
rwrist -87.1756
rhand 61.2361 -46.28
rfingers 7.12502
rthumb 74.8233 -9.41739
lclavicle -1.41137e-014 1.27222e-014
lhumerus -29.6098 17.308 18.6426
lradius 155.045
lwrist 99.4558
lhand 37.4682 -16.8889
lfingers 7.12502
lthumb 60.2653 -3.39012
rfemur 0 0 0
rtibia 0
rfoot 0 0
rtoes 0
lfemur -11.3665 -2.3934 -13.274
ltibia 22.4406
lfoot -19.1899 12.2977
ltoes -56.0874
543
root -0.630702 18.781 5.0837 4.6039 2.60342 -0.323018
lowerback 20.151 1.54528 0.849786
upperback 2.10706 2.40303 1.89474
thorax -9.04258 1.15151 0.919724
lowerneck 3.6038 -2.97849 -1.96438
upperneck 44.8948 -4.05093 0.104558
head 15.3968 -1.92607 0.0138619
rclavicle 1.45113e-014 3.18055e-015
rhumerus -32.7149 -11.841 -13.6065
rradius 155.606
rwrist -87.3701
rhand 60.7336 -46.5588
rfingers 7.12502
rthumb 74.7443 -11.5209
lclavicle 1.45113e-014 3.18055e-015
lhumerus -30.5712 15.4609 19.1386
lradius 155.063
lwrist 99.3251
lhand 37.9433 -16.7705
lfingers 7.12502
lthumb 60.6694 -3.71272
rfemur 0 0 0
rtibia 0
rfoot 0 0
rtoes 0
lfemur -11.0443 -2.57273 -13.2385
ltibia 22.3952
lfoot -19.3014 12.2761
ltoes -56.0376
544
root -0.623586 18.7776 5.12144 4.42021 2.73267 -0.355007
lowerback 19.985 1.5289 0.794602
upperback 1.82256 2.38583 2.00704
thorax -9.27313 1.14762 1.07939
lowerneck 3.07102 -2.91386 -2.39244
upperneck 45.0227 -4.0361 0.432767
head 15.6091 -1.94897 0.223606
rclavicle 1.25234e-014 2.06736e-014
rhumerus -34.7957 -9.12897 -14.0435
rradius 155.804
rwrist -86.9505
rhand 60.6724 -46.8478
rfingers 7.12502
rthumb 74.7336 -12.0307
lclavicle 1.25234e-014 2.06736e-014
lhumerus -32.177 13.766 19.6022
lradius 155.013
lwrist 99.6471
lhand 38.4085 -16.3399
lfingers 7.12502
lthumb 61.0633 -3.72648
rfemur 0 0 0
rtibia 0
rfoot 0 0
rtoes 0
lfemur -10.6996 -2.72684 -13.2329
ltibia 22.337
lfoot -19.4054 12.2873
ltoes -56.0758
545
root -0.61674 18.775 5.16101 4.25115 2.8533 -0.358657
lowerback 20.149 1.5353 1.08464
upperback 1.3209 2.46046 1.84842
thorax -9.90099 1.16344 0.712108
lowerneck 3.1508 -2.89754 -2.60844
upperneck 44.8661 -4.21558 1.03807
head 15.536 -1.99498 0.508718
rclavicle 1.13307e-014 -3.49861e-014
rhumerus -37.5551 -6.11807 -14.9516
rradius 155.998
rwrist -86.0873
rhand 60.3988 -46.9617
rfingers 7.12502
rthumb 74.6829 -13.1279
lclavicle 1.13307e-014 -3.49861e-014
lhumerus -33.4632 11.5075 19.6847
lradius 154.919
lwrist 100.548
lhand 38.7125 -15.9544
lfingers 7.12502
lthumb 61.3195 -3.6382
rfemur 0 0 0
rtibia 0
rfoot 0 0
rtoes 0
lfemur -10.3599 -2.91852 -13.2563
ltibia 22.2692
lfoot -19.5023 12.3229
ltoes -56.0824
546
root -0.610606 18.7725 5.20091 4.1057 3.00978 -0.353144
lowerback 20.0245 1.54395 1.18259
upperback 0.96245 2.49291 1.7624
thorax -10.2232 1.16983 0.552416
lowerneck 2.96862 -2.92453 -2.62675
upperneck 44.5984 -4.38986 1.40499
head 15.4451 -2.03287 0.648914
rclavicle 1.37161e-014 1.90833e-014
rhumerus -39.9849 -3.25961 -15.966
rradius 155.81
rwrist -85.7097
rhand 60.0506 -47.1089
rfingers 7.12502
rthumb 74.6118 -14.5164
lclavicle 1.37161e-014 1.90833e-014
lhumerus -34.9043 8.97726 20.2954
lradius 154.867
lwrist 100.86
lhand 39.0647 -15.7855
lfingers 7.12502
lthumb 61.6154 -3.82081
rfemur 0 0 0
rtibia 0
rfoot 0 0
rtoes 0
lfemur -10.0497 -3.08123 -13.2904
ltibia 22.2155
lfoot -19.5414 12.2802
ltoes -56.1211
547
root -0.60508 18.7689 5.24028 3.94113 3.17559 -0.379701
lowerback 19.6386 1.49337 1.01642
upperback 0.805262 2.40287 1.92201
thorax -10.1976 1.14104 0.8548
lowerneck 2.17219 -2.99216 -2.78227
upperneck 44.6836 -4.37413 1.13755
head 15.6638 -2.0761 0.547054
rclavicle -1.19271e-014 -4.77083e-015
rhumerus -42.3625 0.0370334 -17.9948
rradius 155.802
rwrist -84.6211
rhand 60.3226 -47.5984
rfingers 7.12502
rthumb 74.6679 -14.0374
lclavicle -1.19271e-014 -4.77083e-015
lhumerus -36.9236 6.23815 21.9901
lradius 154.794
lwrist 100.196
lhand 39.1919 -15.5238
lfingers 7.12502
lthumb 61.722 -3.68805
rfemur 0 0 0
rtibia 0
rfoot 0 0
rtoes 0
lfemur -9.74252 -3.18248 -13.2915
ltibia 22.1794
lfoot -19.5399 12.201
ltoes -56.1934
548
root -0.600673 18.7651 5.27934 3.77904 3.3242 -0.426959
lowerback 19.7329 1.50619 1.35561
upperback 0.368328 2.49325 1.75503
thorax -10.7174 1.15743 0.447169
lowerneck 1.82055 -3.21275 -2.63161
upperneck 44.8746 -4.63834 0.923723
head 15.8455 -2.18364 0.388274
rclavicle -1.15295e-014 1.27222e-014
rhumerus -45.8445 3.51819 -20.7581
rradius 155.751
rwrist -83.6108
rhand 60.6349 -47.8163
rfingers 7.12502
rthumb 74.7269 -13.1342
lclavicle -1.15295e-014 1.27222e-014
lhumerus -38.423 2.86832 23.3708
lradius 154.494
lwrist 100.107
lhand 38.2592 -14.8771
lfingers 7.12502
lthumb 60.9371 -2.11969
rfemur 0 0 0
rtibia 0
rfoot 0 0
rtoes 0
lfemur -9.44557 -3.26136 -13.2578
ltibia 22.1587
lfoot -19.5753 12.1284
ltoes -56.1631
549
root -0.596976 18.7617 5.3181 3.65338 3.44344 -0.456167
lowerback 19.609 1.51321 1.4502
upperback 0.0135675 2.52704 1.7097
thorax -11.0401 1.16366 0.333567
lowerneck 1.49328 -3.30132 -2.70236
upperneck 44.8528 -4.75785 0.915543
head 15.9132 -2.2451 0.376239
rclavicle 1.49089e-014 1.90833e-014
rhumerus -49.4657 6.81727 -24.0989
rradius 155.402
rwrist -82.7779
rhand 60.2025 -48.3494
rfingers 7.12502
rthumb 74.6437 -15.2171
lclavicle 1.49089e-014 1.90833e-014
lhumerus -40.284 -0.473514 24.871
lradius 154.202
lwrist 100.233
lhand 36.127 -14.2587
lfingers 7.12502
lthumb 59.1146 0.418622
rfemur 0 0 0
rtibia 0
rfoot 0 0
rtoes 0
lfemur -9.1894 -3.28019 -13.239
ltibia 22.1543
lfoot -19.6257 12.0552
ltoes -56.2295
550
root -0.593156 18.7591 5.3566 3.53667 3.51797 -0.485463
lowerback 19.3694 1.49975 1.45907
upperback -0.276238 2.51248 1.69278
thorax -11.2299 1.15413 0.317293
lowerneck 1.12303 -3.33741 -2.70679
upperneck 44.7663 -4.79797 0.876307
head 15.9479 -2.26739 0.346628
rclavicle 1.16289e-014 -1.59028e-014
rhumerus -52.9196 9.94272 -27.6607
rradius 154.698
rwrist -82.0258
rhand 58.3422 -49.0636
rfingers 7.12502
rthumb 74.1587 -22.3689
lclavicle 1.16289e-014 -1.59028e-014
lhumerus -42.4209 -3.84466 26.8506
lradius 153.902
lwrist 100.032
lhand 32.8966 -13.6177
lfingers 7.12502
lthumb 56.2906 3.54443
rfemur 0 0 0
rtibia 0
rfoot 0 0
rtoes 0
lfemur -8.9508 -3.29472 -13.2235
ltibia 22.1605
lfoot -19.6806 11.9836
ltoes -56.3383
551
root -0.588769 18.7561 5.39328 3.39547 3.57433 -0.522029
lowerback 19.0266 1.44866 1.58613
upperback -0.513181 2.4625 1.60987
thorax -11.2926 1.12018 0.174243
lowerneck 0.923777 -3.35571 -2.62673
upperneck 44.5914 -4.81186 0.807311
head 15.8885 -2.27169 0.295798
rclavicle 1.43125e-014 5.56597e-015
rhumerus -55.9168 12.8105 -31.5619
rradius 153.753
rwrist -80.8323
rhand 55.1073 -49.26
rfingers 7.12502
rthumb 72.8722 -32.6187
lclavicle 1.43125e-014 5.56597e-015
lhumerus -44.7012 -7.18974 29.2053
lradius 153.538
lwrist 99.4773
lhand 29.0215 -12.7942
lfingers 7.12502
lthumb 52.8252 6.80823
rfemur 0 0 0
rtibia 0
rfoot 0 0
rtoes 0
lfemur -8.67976 -3.36866 -13.2035
ltibia 22.1601
lfoot -19.7666 11.9209
ltoes -56.3641
